<svg width="75" height="27" viewBox="0 0 75 27" fill="none" xmlns="http://www.w3.org/2000/svg">
<path d="M16.3425 15.48C16.4705 15.992 16.5345 16.632 16.5345 17.4C16.5345 18.136 16.4705 18.776 16.3425 19.32C16.4705 19.832 16.5345 20.472 16.5345 21.24C16.5345 21.976 16.4705 22.616 16.3425 23.16H14.4225C14.5505 23.672 14.6145 24.312 14.6145 25.08C14.6145 25.816 14.5505 26.456 14.4225 27H2.9025C2.7745 26.456 2.7105 25.816 2.7105 25.08C2.7105 24.312 2.7745 23.672 2.9025 23.16H0.9825C0.8545 22.616 0.7905 21.976 0.7905 21.24C0.7905 20.472 0.8545 19.832 0.9825 19.32H4.8225C4.9505 19.832 5.0145 20.472 5.0145 21.24C5.0145 21.976 4.9505 22.616 4.8225 23.16H12.5025C12.3745 22.616 12.3105 21.976 12.3105 21.24C12.3105 20.472 12.3745 19.832 12.5025 19.32C12.3745 18.776 12.3105 18.136 12.3105 17.4C12.3105 16.632 12.3745 15.992 12.5025 15.48H2.9025C2.7745 14.936 2.7105 14.296 2.7105 13.56C2.7105 12.792 2.7745 12.152 2.9025 11.64H0.9825C0.8545 11.096 0.7905 10.456 0.7905 9.72C0.7905 8.952 0.8545 8.312 0.9825 7.8C0.8545 7.256 0.7905 6.616 0.7905 5.88C0.7905 5.112 0.8545 4.472 0.9825 3.96H2.9025C2.7745 3.416 2.7105 2.776 2.7105 2.04C2.7105 1.272 2.7745 0.631999 2.9025 0.12H14.4225C14.5505 0.631999 14.6145 1.272 14.6145 2.04C14.6145 2.776 14.5505 3.416 14.4225 3.96H16.3425C16.4705 4.472 16.5345 5.112 16.5345 5.88C16.5345 6.616 16.4705 7.256 16.3425 7.8H12.5025C12.3745 7.256 12.3105 6.616 12.3105 5.88C12.3105 5.112 12.3745 4.472 12.5025 3.96H4.8225C4.9505 4.472 5.0145 5.112 5.0145 5.88C5.0145 6.616 4.9505 7.256 4.8225 7.8C4.9505 8.312 5.0145 8.952 5.0145 9.72C5.0145 10.456 4.9505 11.096 4.8225 11.64H14.4225C14.5505 12.152 14.6145 12.792 14.6145 13.56C14.6145 14.296 14.5505 14.936 14.4225 15.48H16.3425ZM35.5613 11.64C35.6893 12.152 35.7533 12.792 35.7533 13.56C35.7533 14.296 35.6893 14.936 35.5613 15.48C35.6893 15.992 35.7533 16.632 35.7533 17.4C35.7533 18.136 35.6893 18.776 35.5613 19.32H34.1213C34.2493 19.832 34.3133 20.472 34.3133 21.24C34.3133 21.976 34.2493 22.616 34.1213 23.16H31.7213C31.8493 23.672 31.9133 24.312 31.9133 25.08C31.9133 25.816 31.8493 26.456 31.7213 27H24.0413C23.9133 26.456 23.8493 25.816 23.8493 25.08C23.8493 24.312 23.9133 23.672 24.0413 23.16H21.6413C21.5132 22.616 21.4492 21.976 21.4492 21.24C21.4492 20.472 21.5132 19.832 21.6413 19.32H20.2013C20.0733 18.776 20.0093 18.136 20.0093 17.4C20.0093 16.632 20.0733 15.992 20.2013 15.48C20.0733 14.936 20.0093 14.296 20.0093 13.56C20.0093 12.792 20.0733 12.152 20.2013 11.64C20.0733 11.096 20.0093 10.456 20.0093 9.72C20.0093 8.952 20.0733 8.312 20.2013 7.8H21.6413C21.5132 7.256 21.4492 6.616 21.4492 5.88C21.4492 5.112 21.5132 4.472 21.6413 3.96H24.0413C23.9133 3.416 23.8493 2.776 23.8493 2.04C23.8493 1.272 23.9133 0.631999 24.0413 0.12H31.7213C31.8493 0.631999 31.9133 1.272 31.9133 2.04C31.9133 2.776 31.8493 3.416 31.7213 3.96H34.1213C34.2493 4.472 34.3133 5.112 34.3133 5.88C34.3133 6.616 34.2493 7.256 34.1213 7.8H35.5613C35.6893 8.312 35.7533 8.952 35.7533 9.72C35.7533 10.456 35.6893 11.096 35.5613 11.64ZM31.7213 19.32C31.5933 18.776 31.5293 18.136 31.5293 17.4C31.5293 16.632 31.5933 15.992 31.7213 15.48C31.5933 14.936 31.5293 14.296 31.5293 13.56C31.5293 12.792 31.5933 12.152 31.7213 11.64C31.5933 11.096 31.5293 10.456 31.5293 9.72C31.5293 8.952 31.5933 8.312 31.7213 7.8H30.2812C30.1533 7.256 30.0893 6.616 30.0893 5.88C30.0893 5.112 30.1533 4.472 30.2812 3.96H25.4813C25.6093 4.472 25.6733 5.112 25.6733 5.88C25.6733 6.616 25.6093 7.256 25.4813 7.8H24.0413C24.1693 8.312 24.2333 8.952 24.2333 9.72C24.2333 10.456 24.1693 11.096 24.0413 11.64C24.1693 12.152 24.2333 12.792 24.2333 13.56C24.2333 14.296 24.1693 14.936 24.0413 15.48C24.1693 15.992 24.2333 16.632 24.2333 17.4C24.2333 18.136 24.1693 18.776 24.0413 19.32H25.4813C25.6093 19.832 25.6733 20.472 25.6733 21.24C25.6733 21.976 25.6093 22.616 25.4813 23.16H30.2812C30.1533 22.616 30.0893 21.976 30.0893 21.24C30.0893 20.472 30.1533 19.832 30.2812 19.32H31.7213ZM52.86 11.64C52.988 12.152 53.052 12.792 53.052 13.56C53.052 14.296 52.988 14.936 52.86 15.48H45.18C45.308 15.992 45.372 16.632 45.372 17.4C45.372 18.136 45.308 18.776 45.18 19.32C45.308 19.832 45.372 20.472 45.372 21.24C45.372 21.976 45.308 22.616 45.18 23.16C45.308 23.672 45.372 24.312 45.372 25.08C45.372 25.816 45.308 26.456 45.18 27H41.34C41.212 26.456 41.148 25.816 41.148 25.08C41.148 24.312 41.212 23.672 41.34 23.16C41.212 22.616 41.148 21.976 41.148 21.24C41.148 20.472 41.212 19.832 41.34 19.32C41.212 18.776 41.148 18.136 41.148 17.4C41.148 16.632 41.212 15.992 41.34 15.48C41.212 14.936 41.148 14.296 41.148 13.56C41.148 12.792 41.212 12.152 41.34 11.64C41.212 11.096 41.148 10.456 41.148 9.72C41.148 8.952 41.212 8.312 41.34 7.8C41.212 7.256 41.148 6.616 41.148 5.88C41.148 5.112 41.212 4.472 41.34 3.96C41.212 3.416 41.148 2.776 41.148 2.04C41.148 1.272 41.212 0.631999 41.34 0.12H52.86C52.988 0.631999 53.052 1.272 53.052 2.04C53.052 2.776 52.988 3.416 52.86 3.96H45.18C45.308 4.472 45.372 5.112 45.372 5.88C45.372 6.616 45.308 7.256 45.18 7.8C45.308 8.312 45.372 8.952 45.372 9.72C45.372 10.456 45.308 11.096 45.18 11.64H52.86ZM74.1908 21.24C74.1908 21.976 74.1268 22.616 73.9988 23.16C74.1268 23.672 74.1908 24.312 74.1908 25.08C74.1908 25.816 74.1268 26.456 73.9988 27H70.1588C70.0308 26.456 69.9668 25.816 69.9668 25.08C69.9668 24.312 70.0308 23.672 70.1588 23.16C70.0308 22.616 69.9668 21.976 69.9668 21.24C69.9668 20.472 70.0308 19.832 70.1588 19.32H62.4788C62.6068 19.832 62.6708 20.472 62.6708 21.24C62.6708 21.976 62.6068 22.616 62.4788 23.16C62.6068 23.672 62.6708 24.312 62.6708 25.08C62.6708 25.816 62.6068 26.456 62.4788 27H58.6388C58.5108 26.456 58.4468 25.816 58.4468 25.08C58.4468 24.312 58.5108 23.672 58.6388 23.16C58.5108 22.616 58.4468 21.976 58.4468 21.24C58.4468 20.472 58.5108 19.832 58.6388 19.32H60.0788C59.9507 18.776 59.8867 18.136 59.8867 17.4C59.8867 16.632 59.9507 15.992 60.0788 15.48C59.9507 14.936 59.8867 14.296 59.8867 13.56C59.8867 12.792 59.9507 12.152 60.0788 11.64H61.0388C60.9108 11.096 60.8468 10.456 60.8468 9.72C60.8468 8.952 60.9108 8.312 61.0388 7.8H62.4788C62.3508 7.256 62.2868 6.616 62.2868 5.88C62.2868 5.112 62.3508 4.472 62.4788 3.96H63.4388C63.3108 3.416 63.2468 2.776 63.2468 2.04C63.2468 1.272 63.3108 0.631999 63.4388 0.12H69.1988C69.3268 0.631999 69.3907 1.272 69.3907 2.04C69.3907 2.776 69.3268 3.416 69.1988 3.96H70.1588C70.2868 4.472 70.3508 5.112 70.3508 5.88C70.3508 6.616 70.2868 7.256 70.1588 7.8H71.5988C71.7268 8.312 71.7908 8.952 71.7908 9.72C71.7908 10.456 71.7268 11.096 71.5988 11.64H72.5588C72.6868 12.152 72.7508 12.792 72.7508 13.56C72.7508 14.296 72.6868 14.936 72.5588 15.48C72.6868 15.992 72.7508 16.632 72.7508 17.4C72.7508 18.136 72.6868 18.776 72.5588 19.32H73.9988C74.1268 19.832 74.1908 20.472 74.1908 21.24ZM68.7188 15.48C68.5908 14.936 68.5268 14.296 68.5268 13.56C68.5268 12.792 68.5908 12.152 68.7188 11.64H67.7588C67.6308 11.096 67.5668 10.456 67.5668 9.72C67.5668 8.952 67.6308 8.312 67.7588 7.8H64.8788C65.0068 8.312 65.0708 8.952 65.0708 9.72C65.0708 10.456 65.0068 11.096 64.8788 11.64H63.9188C64.0468 12.152 64.1108 12.792 64.1108 13.56C64.1108 14.296 64.0468 14.936 63.9188 15.48H68.7188Z" fill="white"/>
</svg>
